<svg xmlns="http://www.w3.org/2000/svg" width="1200" height="630" viewBox="0 0 1200 630" role="img" aria-labelledby="title desc">
  <title id="title">Zidash</title>
  <desc id="desc">Zidash community marketplace app preview</desc>
  <rect width="1200" height="630" fill="#f5f8f4"/>
  <rect x="80" y="80" width="1040" height="470" rx="32" fill="#ffffff"/>
  <circle cx="982" cy="158" r="94" fill="#66C665" opacity="0.18"/>
  <rect x="132" y="140" width="86" height="86" rx="18" fill="#66C665"/>
  <text x="175" y="198" text-anchor="middle" font-family="Arial, sans-serif" font-size="52" font-weight="800" fill="#ffffff">Z</text>
  <text x="252" y="185" font-family="Arial, sans-serif" font-size="62" font-weight="800" fill="#132015">Zidash</text>
  <text x="132" y="282" font-family="Arial, sans-serif" font-size="54" font-weight="800" fill="#132015">Buy, Sell, Hire, and Grow</text>
  <text x="132" y="350" font-family="Arial, sans-serif" font-size="54" font-weight="800" fill="#132015">Within Your Community</text>
  <text x="132" y="420" font-family="Arial, sans-serif" font-size="28" fill="#627064">Marketplace, jobs, UGC creators, and trusted local connections.</text>
  <rect x="803" y="128" width="210" height="374" rx="36" fill="#172018"/>
  <rect x="820" y="156" width="176" height="318" rx="24" fill="#ffffff"/>
  <rect x="842" y="190" width="132" height="34" rx="8" fill="#f5f8f4"/>
  <rect x="842" y="244" width="58" height="70" rx="8" fill="#66C665"/>
  <rect x="916" y="244" width="58" height="70" rx="8" fill="#f2b84b"/>
  <rect x="842" y="336" width="132" height="48" rx="8" fill="#eef9ee"/>
  <rect x="842" y="402" width="132" height="42" rx="8" fill="#f5f8f4"/>
</svg>
